<svg xmlns="http://www.w3.org/2000/svg" width="380.548" height="440.872" viewBox="0 0 380.548 440.872">
  <g id="solar_panel" transform="translate(-7.821 34.442) rotate(-7)">
    <g id="Path_25" data-name="Path 25" transform="matrix(0.914, -0.407, 0.407, 0.914, 0, 64.177)" fill="#dcdcdc">
      <path d="M 0.5160614252090454 344.4035949707031 L 5.435988426208496 9.583830833435059 L 16.50533866882324 1.028543949127197 L 12.24063014984131 334.5066833496094 L 0.5160614252090454 344.4035949707031 Z" stroke="none"/>
      <path d="M 15.99214744567871 2.05712890625 L 5.932401657104492 9.832122802734375 L 1.032139778137207 343.3136291503906 L 11.74359703063965 334.2718811035156 L 15.99214744567871 2.05712890625 M 17.01852798461914 0 L 12.7376651763916 334.7413940429688 L -1.71661376953125e-05 345.4935302734375 L 4.939573287963867 9.3355712890625 L 17.01852798461914 0 Z" stroke="none" fill="#dcdcdc"/>
    </g>
    <g id="Path_24" data-name="Path 24" transform="translate(140.496 379.757) rotate(-90)" fill="#dcdcdc">
      <path d="M 14.28738307952881 195.8495635986328 L 0.4999998807907104 186.6802978515625 L 0.5000993013381958 0.7913621664047241 L 14.39516925811768 7.397379875183105 L 14.28738307952881 195.8495635986328 Z" stroke="none"/>
      <path d="M 1.000099182128906 1.582672119140625 L 1 186.4123077392578 L 13.78791618347168 194.9168701171875 L 13.89498805999756 7.713211059570312 L 1.000099182128906 1.582672119140625 M 0.0001001358032226562 -1.52587890625e-05 L 14.89534950256348 7.08154296875 L 14.78684997558594 196.7821655273438 L 0 186.9482116699219 L 0.0001001358032226562 -1.52587890625e-05 Z" stroke="none" fill="#dcdcdc"/>
    </g>
    <path id="Path_23" data-name="Path 23" d="M0,0,190.156,40.419,258.772,373.14l-192.4-40.9Z" transform="matrix(0.978, -0.208, 0.208, 0.978, 13.852, 53.802)" fill="#27659a" stroke="#27659a" stroke-linecap="square" stroke-linejoin="round" stroke-width="3"/>
    <path id="Path_26" data-name="Path 26" d="M0,0,38.491,8.666,52.38,80,13.434,71.232Z" transform="matrix(0.978, -0.208, 0.208, 0.978, 23.918, 62.09)" fill="#3988cc" stroke="#3988cc" stroke-linecap="square" stroke-linejoin="round" stroke-width="3"/>
    <path id="Path_27" data-name="Path 27" d="M0,0,38.491,8.666,52.38,80,13.434,71.232Z" transform="matrix(0.978, -0.208, 0.208, 0.978, 55.887, 138.142)" fill="#3988cc" stroke="#3988cc" stroke-linecap="square" stroke-linejoin="round" stroke-width="3"/>
    <path id="Path_28" data-name="Path 28" d="M0,0,38.491,8.666,52.38,80,13.434,71.232Z" transform="matrix(0.978, -0.208, 0.208, 0.978, 90.019, 214.874)" fill="#3988cc" stroke="#3988cc" stroke-linecap="square" stroke-linejoin="round" stroke-width="3"/>
    <path id="Path_29" data-name="Path 29" d="M0,0,38.491,8.666,52.38,80,13.434,71.232Z" transform="matrix(0.978, -0.208, 0.208, 0.978, 122.165, 291.362)" fill="#3a709f" stroke="#3a709f" stroke-linecap="square" stroke-linejoin="round" stroke-width="3"/>
    <path id="Path_30" data-name="Path 30" d="M0,0,38.491,8.666,52.38,80,13.434,71.232Z" transform="matrix(0.978, -0.208, 0.208, 0.978, 73.055, 61.103)" fill="#3a709f" stroke="#3a709f" stroke-linecap="square" stroke-linejoin="round" stroke-width="3"/>
    <path id="Path_31" data-name="Path 31" d="M0,0,38.491,8.666,52.38,80,13.434,71.232Z" transform="matrix(0.978, -0.208, 0.208, 0.978, 105.025, 137.155)" fill="#3a709f" stroke="#3a709f" stroke-linecap="square" stroke-linejoin="round" stroke-width="3"/>
    <path id="Path_32" data-name="Path 32" d="M0,0,38.491,8.666,52.38,80,13.434,71.232Z" transform="matrix(0.978, -0.208, 0.208, 0.978, 139.157, 213.887)" fill="#3988cc" stroke="#3988cc" stroke-linecap="square" stroke-linejoin="round" stroke-width="3"/>
    <path id="Path_33" data-name="Path 33" d="M0,0,38.491,8.666,52.38,80,13.434,71.232Z" transform="matrix(0.978, -0.208, 0.208, 0.978, 171.304, 290.375)" fill="#3988cc" stroke="#3988cc" stroke-linecap="square" stroke-linejoin="round" stroke-width="3"/>
    <path id="Path_34" data-name="Path 34" d="M0,0,38.491,8.666,52.38,80,13.434,71.232Z" transform="matrix(0.978, -0.208, 0.208, 0.978, 120.863, 59.906)" fill="#3988cc" stroke="#3988cc" stroke-linecap="square" stroke-linejoin="round" stroke-width="3"/>
    <path id="Path_35" data-name="Path 35" d="M0,0,38.491,8.666,52.38,80,13.434,71.232Z" transform="matrix(0.978, -0.208, 0.208, 0.978, 152.833, 135.959)" fill="#3988cc" stroke="#3988cc" stroke-linecap="square" stroke-linejoin="round" stroke-width="3"/>
    <path id="Path_36" data-name="Path 36" d="M0,0,38.491,8.666,52.38,80,13.434,71.232Z" transform="matrix(0.978, -0.208, 0.208, 0.978, 186.964, 212.69)" fill="#3a709f" stroke="#3a709f" stroke-linecap="square" stroke-linejoin="round" stroke-width="3"/>
    <path id="Path_37" data-name="Path 37" d="M0,0,38.491,8.666,52.38,80,13.434,71.232Z" transform="matrix(0.978, -0.208, 0.208, 0.978, 219.111, 289.178)" fill="#3a709f" stroke="#3a709f" stroke-linecap="square" stroke-linejoin="round" stroke-width="3"/>
    <path id="Path_38" data-name="Path 38" d="M0,0,38.491,8.666,52.38,80,13.434,71.232Z" transform="matrix(0.978, -0.208, 0.208, 0.978, 169.358, 58.808)" fill="#3a709f" stroke="#3a709f" stroke-linecap="square" stroke-linejoin="round" stroke-width="3"/>
    <path id="Path_39" data-name="Path 39" d="M0,0,38.491,8.666,52.38,80,13.434,71.232Z" transform="matrix(0.978, -0.208, 0.208, 0.978, 201.328, 134.86)" fill="#3988cc" stroke="#3988cc" stroke-linecap="square" stroke-linejoin="round" stroke-width="3"/>
    <path id="Path_40" data-name="Path 40" d="M0,0,38.491,8.666,52.38,80,13.434,71.232Z" transform="matrix(0.978, -0.208, 0.208, 0.978, 235.46, 211.592)" fill="#3a709f" stroke="#3a709f" stroke-linecap="square" stroke-linejoin="round" stroke-width="3"/>
    <path id="Path_41" data-name="Path 41" d="M0,0,38.491,8.666,52.38,80,13.434,71.232Z" transform="matrix(0.978, -0.208, 0.208, 0.978, 267.606, 288.08)" fill="#3988cc" stroke="#3988cc" stroke-linecap="square" stroke-linejoin="round" stroke-width="3"/>
  </g>
</svg>
